<svg width="31" height="22" viewBox="0 0 31 22" fill="none" xmlns="http://www.w3.org/2000/svg">
<path d="M12.7285 13.9043H15.2031V16.5703H12.7285V21H9.40625V16.5703H0.806641L0.710938 14.5469L9.29688 1.09375H12.7285V13.9043ZM4.19727 13.9043H9.40625V5.5918L9.16016 6.0293L4.19727 13.9043ZM30.3789 12.6191C30.3789 15.4811 29.8411 17.6413 28.7656 19.0996C27.6992 20.5488 26.0723 21.2734 23.8848 21.2734C21.7337 21.2734 20.1113 20.5671 19.0176 19.1543C17.9329 17.7324 17.377 15.6315 17.3496 12.8516V9.40625C17.3496 6.54427 17.8828 4.39779 18.9492 2.9668C20.0247 1.53581 21.6608 0.820312 23.8574 0.820312C26.0358 0.820312 27.6582 1.51758 28.7246 2.91211C29.8001 4.30664 30.3516 6.39388 30.3789 9.17383V12.6191ZM27.0566 8.90039C27.0566 7.0319 26.8014 5.66471 26.291 4.79883C25.7806 3.92383 24.9694 3.48633 23.8574 3.48633C22.7728 3.48633 21.9753 3.90104 21.4648 4.73047C20.9544 5.55078 20.6855 6.83594 20.6582 8.58594V13.0977C20.6582 14.957 20.918 16.3424 21.4375 17.2539C21.957 18.1654 22.7728 18.6211 23.8848 18.6211C24.9512 18.6211 25.7396 18.2018 26.25 17.3633C26.7604 16.5156 27.0293 15.194 27.0566 13.3984V8.90039Z" fill="#386641"/>
</svg>
