<svg width="26" height="32" viewBox="0 0 26 32" fill="none" xmlns="http://www.w3.org/2000/svg">
<path d="M17.0481 15.4345C17.8584 14.2236 18.1893 12.7544 17.9762 11.313C17.7631 9.87159 17.0214 8.561 15.8953 7.63626C14.7693 6.71152 13.3395 6.23878 11.8842 6.31003C10.4288 6.38129 9.05206 6.99143 8.02175 8.02175C6.99143 9.05206 6.38129 10.4288 6.31003 11.8842C6.23878 13.3395 6.71152 14.7693 7.63626 15.8953C8.561 17.0214 9.87159 17.7631 11.313 17.9762C12.7544 18.1893 14.2236 17.8584 15.4345 17.0481L19.3361 20.9481L19.4417 21.0395L19.4543 21.049C19.6858 21.2169 19.972 21.2918 20.2562 21.2587C20.5403 21.2256 20.8016 21.0869 20.9883 20.8703C21.1751 20.6536 21.2736 20.3747 21.2644 20.0888C21.2552 19.8029 21.1389 19.5309 20.9387 19.3267L17.0465 15.4345H17.0481ZM12.1712 8.58315C13.1225 8.58315 14.035 8.96109 14.7077 9.63382C15.3804 10.3066 15.7584 11.219 15.7584 12.1704C15.7584 13.1218 15.3804 14.0342 14.7077 14.7069C14.035 15.3796 13.1225 15.7576 12.1712 15.7576C11.2198 15.7576 10.3073 15.3796 9.63461 14.7069C8.96188 14.0342 8.58394 13.1218 8.58394 12.1704C8.58394 11.219 8.96188 10.3066 9.63461 9.63382C10.3073 8.96109 11.2198 8.58315 12.1712 8.58315V8.58315ZM3.93939 0C2.8946 0 1.8926 0.415042 1.15382 1.15382C0.415042 1.8926 0 2.8946 0 3.93939V27.5758C0 28.6206 0.415042 29.6226 1.15382 30.3613C1.8926 31.1001 2.8946 31.5152 3.93939 31.5152H24.8182C25.1316 31.5152 25.4322 31.3906 25.6539 31.169C25.8755 30.9474 26 30.6468 26 30.3333C26 30.0199 25.8755 29.7193 25.6539 29.4977C25.4322 29.276 25.1316 29.1515 24.8182 29.1515H3.93939C3.52148 29.1515 3.12068 28.9855 2.82517 28.69C2.52965 28.3945 2.36364 27.9937 2.36364 27.5758H24.8182C25.1316 27.5758 25.4322 27.4512 25.6539 27.2296C25.8755 27.008 26 26.7074 26 26.3939V3.93939C26 3.42207 25.8981 2.9098 25.7001 2.43185C25.5022 1.9539 25.212 1.51963 24.8462 1.15382C24.4804 0.788015 24.0461 0.497842 23.5681 0.299869C23.0902 0.101895 22.5779 0 22.0606 0H3.93939ZM23.6364 25.2121H2.36364V3.93939C2.36364 3.52148 2.52965 3.12068 2.82517 2.82517C3.12068 2.52965 3.52148 2.36364 3.93939 2.36364H22.0606C22.4785 2.36364 22.8793 2.52965 23.1748 2.82517C23.4703 3.12068 23.6364 3.52148 23.6364 3.93939V25.2121Z" fill="#386641"/>
</svg>
