<svg width="35" height="32" viewBox="0 0 35 32" fill="none" xmlns="http://www.w3.org/2000/svg">
<path d="M4.47982 8.1C1.61115 10.7274 0 14.2879 0 18C0 21.7121 1.61115 25.2726 4.47982 27.9C7.47714 30.64 11.3933 32 15.3096 32C19.2258 32 23.142 30.64 26.1393 27.9C33.7529 20.94 35 0 35 0C35 0 12.0935 1.14 4.47982 8.1ZM23.0545 25.08C20.976 26.96 18.2412 28 15.3096 28C13.3624 28 11.5246 27.5 9.88375 26.64C11.8966 20.88 15.6159 15.82 20.5603 12C14.8064 14.72 9.97126 18.92 6.62389 24C3.3859 20.08 3.67032 14.5 7.58653 10.92C11.3933 7.44 21.9606 5.3 30.1868 4.4C29.2023 11.92 26.8613 21.58 23.0545 25.08Z" fill="#386641"/>
</svg>
